<?xml version="1.0" encoding="UTF-8" standalone="no"?>
<!-- Created with Inkscape (http://www.inkscape.org/) -->

<svg
   version="1.1"
   id="svg268"
   width="1200"
   height="1200"
   viewBox="0 0 1200 1200"
   sodipodi:docname="ant-animal-pdv.svg"
   inkscape:version="1.2 (dc2aedaf03, 2022-05-15)"
   xmlns:inkscape="http://www.inkscape.org/namespaces/inkscape"
   xmlns:sodipodi="http://sodipodi.sourceforge.net/DTD/sodipodi-0.dtd"
   xmlns="http://www.w3.org/2000/svg"
   xmlns:svg="http://www.w3.org/2000/svg">
  <defs
     id="defs272">
    <clipPath
       clipPathUnits="userSpaceOnUse"
       id="clipPath284">
      <path
         d="m 526.315,457.496 c -2.615,-1.531 -4.836,-3.361 -6.732,-5.286 v 0 c -2.502,-2.54 -4.47,-5.272 -6.15,-8.04 v 0 c -3.344,-5.557 -5.598,-11.291 -7.54,-17.018 v 0 c -3.842,-11.465 -6.276,-22.998 -9.78,-34.342 v 0 c -1.766,-5.66 -3.768,-11.304 -6.734,-16.617 v 0 c -1.484,-2.644 -3.259,-5.207 -5.472,-7.418 v 0 c -1.128,-1.148 -2.208,-1.914 -3.964,-3.373 v 0 c -1.505,-1.335 -2.925,-2.7 -4.129,-4.104 v 0 c -4.925,-5.617 -7.862,-11.513 -10.229,-17.359 v 0 c -2.313,-5.863 -3.907,-11.73 -5.143,-17.581 v 0 c -2.204,-10.685 -3.31,-21.335 -3.952,-31.927 v 0 c -18.788,-1.889 -39.369,-5.162 -58.229,-9.056 v 0 c -1.193,4.273 -2.425,8.546 -3.765,12.808 v 0 c -3.1,9.747 -6.54,19.487 -11.735,28.962 v 0 c -2.664,4.718 -5.677,9.414 -10.285,13.734 v 0 c -2.331,2.142 -5.11,4.228 -8.991,5.782 v 0 l -1.514,0.54 c -0.533,0.161 -1.087,0.306 -1.632,0.455 v 0 c -1.092,0.26 -2.507,0.488 -3.026,0.579 v 0 c -1.452,0.255 -2.862,0.656 -4.221,1.181 v 0 c -5.452,2.167 -9.71,6.03 -13.284,10.056 v 0 c -3.573,4.083 -6.574,8.486 -9.387,12.959 v 0 c -5.625,8.956 -10.471,18.25 -16.481,27.206 v 0 c -3.017,4.471 -6.324,8.877 -10.475,12.929 v 0 c -2.104,2.006 -4.396,3.94 -7.107,5.613 v 0 c -2.677,1.68 -5.809,3.084 -9.333,3.942 v 0 c 6.906,-2.014 11.564,-5.975 15.301,-10.057 v 0 c 3.708,-4.151 6.567,-8.635 9.145,-13.185 v 0 c 0.632,-1.123 1.206,-2.27 1.807,-3.402 v 0 c 4.279,-8.065 7.902,-16.324 12.162,-24.493 v 0 c 2.439,-4.658 5.081,-9.292 8.459,-13.781 v 0 c 0.974,-1.267 2.013,-2.525 3.145,-3.758 v 0 c 0.586,-0.739 1.17,-1.484 1.8,-2.198 v 0 c 1.838,-1.962 3.788,-3.87 6.119,-5.429 v 0 c 2.329,-1.546 4.961,-2.781 7.829,-3.414 v 0 l 1.083,-0.213 0.538,-0.114 0.842,-0.155 c 1.18,-0.196 2.25,-0.501 3.291,-0.825 v 0 c 1.24,-0.394 2.346,-0.87 3.376,-1.382 v 0 c 0.963,-0.748 1.865,-1.572 2.688,-2.452 v 0 c 3.52,-3.768 5.984,-8.238 8.063,-12.772 v 0 c 4.082,-9.144 6.61,-18.802 8.779,-28.508 v 0 c 2.157,-9.721 3.798,-19.546 5.587,-29.452 v 0 c 0.188,-1.009 0.374,-2.016 0.565,-3.021 v 0 c -1.484,6.199 -2.967,12.371 -4.565,18.502 v 0 c -0.466,-0.11 -0.92,-0.223 -1.379,-0.329 v 0 c -2.207,3.562 -4.718,7.048 -7.742,10.362 v 0 c -2.022,2.206 -4.283,4.333 -6.893,6.291 v 0 c -1.29,0.99 -2.721,1.908 -4.205,2.791 v 0 l -2.302,1.237 c -0.718,0.364 -1.413,0.751 -2.098,1.148 v 0 c -2.028,1.199 -3.894,2.525 -5.636,3.936 v 0 c -0.998,3.991 -5.309,8.654 -12.733,13.454 v 0 c -5.504,6.927 -10.414,14.143 -16.19,21.041 v 0 c -3.706,4.419 -7.747,8.738 -12.708,12.584 v 0 c -4.932,3.83 -10.954,7.195 -18.273,8.997 v 0 c 7.189,-1.978 12.93,-5.456 17.587,-9.369 v 0 c 4.681,-3.929 8.434,-8.308 11.856,-12.79 v 0 c 4.229,-5.542 7.904,-11.281 11.806,-16.976 v 0 C 292.091,347.18 182.202,369.896 27.721,334.721 v 0 c 7.84,-23.889 34.318,-57.29 68.738,-65.286 v 0 c 5.155,0.67 10.274,1.768 15.199,3.26 v 0 c -1.996,0.478 -3.894,1.045 -5.729,1.636 v 0 c -4.415,1.486 -8.429,3.276 -12.244,5.185 v 0 c -7.602,3.842 -14.383,8.227 -20.442,12.995 v 0 c -6.084,4.751 -11.463,9.894 -15.791,15.44 v 0 c -2.173,2.766 -4.001,5.667 -5.4,8.672 v 0 c -1.388,2.999 -2.225,6.157 -2.129,9.351 v 0 c 0.408,-3.156 1.824,-6.121 3.567,-8.955 v 0 c 1.754,-2.834 4.001,-5.507 6.41,-8.092 v 0 c 4.876,-5.156 10.697,-9.886 17,-14.282 v 0 c 6.365,-4.358 13.242,-8.406 20.716,-11.859 v 0 c 3.744,-1.713 7.655,-3.267 11.722,-4.513 v 0 c 3.76,-1.157 7.785,-2.085 11.589,-2.236 v 0 c 8.863,3.694 16.862,8.476 23.773,13.834 v 0 c 8.437,6.502 15.365,13.82 21.335,21.391 v 0 c -5.179,-7.773 -11.37,-15.394 -19.314,-22.376 v 0 c -6.086,-5.374 -13.272,-10.376 -21.57,-14.534 v 0 c 4.844,-4.536 10.409,-8.679 16.774,-12.177 v 0 c 6.732,-3.671 14.478,-6.509 22.944,-8.202 v 0 c 8.445,-1.723 17.548,-2.363 26.786,-2.006 v 0 c 9.135,0.35 18.352,1.574 27.459,3.258 v 0 c 4.039,2.267 7.864,4.718 11.443,7.314 v 0 c 9.607,6.855 17.382,14.755 23.868,23.001 v 0 c -5.695,-8.448 -12.758,-16.681 -21.916,-24.041 v 0 c -2.887,-2.358 -6.004,-4.618 -9.292,-6.78 v 0 c 7.781,-3.158 16.066,-5.807 24.818,-7.682 v 0 c 9.093,-1.933 18.783,-2.86 28.612,-2.483 v 0 c 9.827,0.391 19.73,2.255 28.924,5.326 v 0 c 4.588,1.543 9.043,3.333 13.3,5.345 v 0 c 4.208,2.051 8.29,4.248 12.182,6.608 v 0 c -3.525,-2.581 -7.214,-5.103 -11.254,-7.391 v 0 c -4.063,-2.274 -8.377,-4.384 -12.995,-6.186 v 0 c -4.607,-1.809 -9.485,-3.351 -14.552,-4.522 v 0 c -5.074,-1.154 -10.32,-1.949 -15.589,-2.36 v 0 c -10.568,-0.861 -21.105,-0.052 -30.951,1.706 v 0 c -9.37,1.654 -18.055,4.326 -26.241,7.402 v 0 c -1.612,-0.322 -3.231,-0.63 -4.859,-0.916 v 0 c -4.668,-2.537 -9.621,-4.865 -14.869,-6.898 v 0 c -2.11,-0.818 -4.278,-1.575 -6.471,-2.299 v 0 c 37.1,-23.959 92.849,-15.072 122.297,1.474 v 0 c 0.921,-1.928 1.793,-3.874 2.595,-5.838 v 0 c 2.205,-5.427 4.01,-10.967 5.66,-16.539 v 0 c 1.647,-5.576 3.111,-11.194 4.577,-16.831 v 0 c 1.5,-5.643 2.863,-11.284 4.932,-16.99 v 0 c 0.543,-1.433 1.129,-2.863 2.002,-4.364 v 0 c 0.476,-0.763 0.911,-1.513 1.92,-2.426 v 0 c 0.341,-0.26 0.506,-0.447 1.031,-0.746 v 0 c 0.469,-0.275 1.071,-0.526 1.733,-0.701 v 0 c 1.353,-0.363 2.82,-0.35 3.929,-0.207 v 0 c 2.249,0.316 3.6,0.902 4.851,1.43 v 0 c 1.23,0.547 2.272,1.115 3.257,1.688 v 0 c 1.95,1.148 3.651,2.326 5.285,3.525 v 0 c 6.449,4.788 11.91,9.793 17.277,14.847 v 0 c 7.299,6.961 14.189,14.016 20.876,21.157 v 0 c 1.197,-6.112 2.373,-12.246 3.755,-18.405 v 0 c 0.608,-2.568 1.242,-5.137 2.167,-7.757 v 0 c 0.503,-1.329 0.957,-2.619 1.986,-4.122 v 0 c 0.237,-0.362 0.6,-0.79 1.021,-1.212 v 0 c 0.581,-0.503 1.131,-0.952 2.194,-1.379 v 0 c 0.988,-0.427 2.717,-0.735 4.303,-0.554 v 0 c 1.586,0.163 2.747,0.612 3.576,0.999 v 0 c 1.641,0.803 2.487,1.546 3.297,2.248 v 0 c 0.781,0.701 1.407,1.375 1.99,2.043 v 0 c 1.148,1.331 2.085,2.632 2.967,3.931 v 0 c 1.74,2.598 3.208,5.175 4.588,7.758 v 0 c 2.699,5.149 5.095,10.288 7.304,15.444 v 0 c 2.295,-0.441 4.588,-0.844 6.865,-1.198 v 0 c 1.749,-2.838 3.576,-5.646 5.539,-8.443 v 0 c 1.607,-2.279 3.298,-4.542 5.168,-6.772 v 0 c 1.913,-2.234 3.864,-4.436 6.676,-6.594 v 0 c 0.727,-0.54 1.515,-1.08 2.527,-1.61 v 0 c 1.046,-0.509 2.196,-1.113 4.487,-1.377 v 0 c 1.115,-0.118 2.62,-0.067 3.961,0.33 v 0 c 1.307,0.365 2.374,0.948 3.017,1.446 v 0 c 0.686,0.502 1.148,0.992 1.605,1.587 v 0 c 0.331,0.48 0.603,0.944 0.771,1.331 v 0 c 0.729,1.598 1.015,2.928 1.304,4.282 v 0 c 0.271,1.342 0.473,2.654 0.645,3.957 v 0 c 0.448,3.583 0.724,7.113 0.96,10.631 v 0 c 10.015,1.238 18.91,4.06 25.959,8.866 v 0 c 6.163,4.203 11.328,8.345 15.594,12.398 v 0 c -0.973,0.319 -1.896,0.652 -2.794,0.985 v 0 c -4.192,1.605 -7.807,3.328 -11.343,5.095 v 0 c -3.516,1.773 -6.883,3.596 -10.177,5.45 v 0 c -6.943,3.933 -13.598,7.962 -20.116,12.081 v 0 c 0.026,-3.814 0.041,-7.644 -0.001,-11.506 v 0 c -0.053,-2.886 -0.125,-5.772 -0.427,-8.811 v 0 c -0.161,-1.533 -0.349,-3.071 -0.813,-4.865 v 0 c -0.261,-0.915 -0.491,-1.83 -1.339,-3.278 v 0 c -0.117,-0.186 -0.199,-0.335 -0.352,-0.55 v 0 c -0.185,-0.25 -0.383,-0.493 -0.588,-0.735 v 0 c -0.413,-0.485 -0.869,-0.942 -1.614,-1.503 v 0 c -0.745,-0.55 -1.687,-1.154 -3.087,-1.701 v 0 c -1.367,-0.546 -3.099,-0.942 -4.688,-1.056 v 0 c -3.278,-0.214 -5.252,0.393 -6.548,0.799 v 0 c -1.32,0.452 -2.163,0.892 -2.885,1.29 v 0 c -1.405,0.806 -2.32,1.519 -3.176,2.213 v 0 c -1.661,1.38 -2.918,2.678 -4.113,3.972 v 0 c -2.35,2.588 -4.324,5.14 -6.212,7.707 v 0 c -4.116,5.696 -7.804,11.407 -11.28,17.164 v 0 c -0.278,-1.039 -0.557,-2.079 -0.858,-3.128 v 0 c -0.744,-2.585 -1.558,-5.176 -2.526,-7.813 v 0 c -0.986,-2.647 -2.036,-5.279 -3.704,-8.194 v 0 c -0.434,-0.737 -0.893,-1.485 -1.5,-2.311 v 0 c -0.619,-0.825 -1.3,-1.7 -2.521,-2.8 v 0 c -0.291,-0.265 -0.706,-0.592 -1.086,-0.881 v 0 c -0.522,-0.356 -0.887,-0.632 -1.626,-1.028 v 0 c -0.355,-0.19 -0.633,-0.346 -1.078,-0.541 v 0 c -0.445,-0.195 -0.907,-0.379 -1.374,-0.545 v 0 c -1.089,-0.36 -2.273,-0.666 -3.685,-0.811 v 0 c -2.774,-0.314 -5.401,0.189 -6.879,0.745 v 0 c -0.412,0.145 -0.671,0.264 -1.005,0.413 v 0 c -0.306,0.138 -0.642,0.297 -0.842,0.418 v 0 c -0.463,0.266 -0.893,0.511 -1.328,0.86 v 0 c -1.755,1.398 -2.101,2.173 -2.651,2.97 v 0 c -0.252,0.4 -0.46,0.772 -0.635,1.122 v 0 c -0.197,0.366 -0.359,0.711 -0.513,1.05 v 0 c -0.619,1.363 -1.099,2.648 -1.533,3.921 v 0 c -0.311,0.941 -0.592,1.87 -0.874,2.8 v 0 c 0.199,-0.445 0.416,-0.899 0.704,-1.399 v 0 c 0.202,-0.38 0.498,-0.831 0.837,-1.294 v 0 c 0.132,-0.203 0.422,-0.523 0.655,-0.785 v 0 l 0.383,-0.404 0.624,-0.534 c 0.217,-0.172 0.443,-0.343 0.672,-0.506 v 0 l 0.663,-0.407 c 0.392,-0.248 1.066,-0.568 1.708,-0.828 v 0 c 1.428,-0.558 3.692,-1.135 6.567,-0.951 v 0 c 2.898,0.188 5.121,1.07 6.494,1.78 v 0 c 1.467,0.766 2.174,1.362 2.908,1.961 v 0 c 1.267,1.119 1.964,2.003 2.595,2.838 v 0 c 0.607,0.822 1.085,1.582 1.52,2.322 v 0 c 1.687,2.926 2.737,5.566 3.733,8.221 v 0 c 0.968,2.64 1.788,5.239 2.535,7.829 v 0 c 0.302,1.06 0.585,2.111 0.865,3.164 v 0 c 1.066,-1.768 2.149,-3.532 3.262,-5.29 v 0 c 2.591,-4.086 5.321,-8.156 8.273,-12.222 v 0 c 1.923,-2.593 3.93,-5.173 6.362,-7.793 v 0 c 1.242,-1.317 2.537,-2.632 4.36,-4.059 v 0 c 0.959,-0.719 1.939,-1.461 3.792,-2.341 v 0 c 0.982,-0.425 2.111,-0.935 4.332,-1.298 v 0 c 1.103,-0.166 2.497,-0.272 4.148,-0.116 v 0 c 1.639,0.145 3.367,0.593 4.68,1.157 v 0 c 1.346,0.562 2.295,1.187 2.968,1.715 v 0 c 0.711,0.554 1.142,1.013 1.567,1.53 v 0 c 0.199,0.244 0.433,0.538 0.568,0.745 v 0 l 0.333,0.558 0.307,0.559 0.193,0.442 c 0.521,1.224 0.688,2.095 0.88,2.999 v 0 c 0.324,1.736 0.444,3.287 0.526,4.82 v 0 c 0.142,3.042 0.099,5.961 0.021,8.861 v 0 c -0.371,11.563 -1.18,22.876 -1.379,34.242 v 0 c -0.216,11.348 0,22.704 1.524,33.992 v 0 c 0.781,5.639 1.903,11.263 3.677,16.785 v 0 c 0.084,0.264 0.181,0.529 0.269,0.792 v 0 c 1.767,5.231 4.087,10.416 7.761,15.048 v 0 c 0.937,1.227 2.034,2.371 3.171,3.488 v 0 c 1.025,0.931 2.886,2.489 4.102,3.913 v 0 c 2.553,2.898 4.256,5.856 5.632,8.787 v 0 c 2.711,5.872 4.215,11.696 5.504,17.485 v 0 c 2.525,11.571 3.912,23.052 6.703,34.476 v 0 c 1.416,5.699 3.137,11.4 5.944,16.949 v 0 c 1.413,2.769 3.105,5.502 5.349,8.077 v 0 c 1.732,1.982 3.8,3.887 6.327,5.514 v 0 z M 409.338,250.092 c 0.138,-0.128 0.183,-0.183 0.175,-0.183 v 0 c -0.007,0 -0.086,0.072 -0.175,0.183 m 44.025,-6.523 c 0.005,0.012 0.016,0.024 0.026,0.038 v 0 c 0.009,0.01 0.031,0.044 0.048,0.072 v 0 c -0.012,-0.022 -0.024,-0.055 -0.039,-0.072 v 0 l -0.037,-0.084 c -0.004,0.014 -0.002,0.029 0.002,0.046 m 205.422,164.967 -35.999,-24.665 c -11.995,-8.203 -24.025,-16.391 -36.528,-24.149 v 0 c -6.283,-3.822 -12.606,-7.699 -19.276,-10.956 v 0 c -3.505,-1.914 -6.179,-2.699 -10.535,-4.666 v 0 c -4.537,-2.043 -7.698,-4.774 -10.192,-7.464 v 0 c -9.148,-11.011 -11.448,-22.244 -14.01,-33.231 v 0 c -1.452,-7.104 -2.419,-14.177 -3.264,-21.207 v 0 c -3.476,3.85 -8.26,7.253 -14.21,10.112 v 0 c -4.792,2.306 -12.647,3.491 -22.462,3.79 v 0 c 0.12,0.182 0.211,0.371 0.33,0.552 v 0 c 1.573,2.299 3.494,4.504 5.991,6.28 v 0 c 0.644,0.418 1.29,0.84 1.997,1.197 v 0 c 0.738,0.381 1.32,0.607 2.358,1.051 v 0 c 1.883,0.797 3.58,1.757 5.09,2.79 v 0 c 2.997,2.095 5.297,4.466 7.182,6.889 v 0 c 1.903,2.422 3.403,4.919 4.742,7.42 v 0 c 2.634,5.019 4.548,10.096 6.272,15.169 v 0 c 3.424,10.15 5.976,20.322 9.704,30.388 v 0 c 1.879,5.03 4.033,10.042 7.073,14.889 v 0 c 1.546,2.414 3.289,4.795 5.492,7.018 v 0 c 2.169,2.232 4.842,4.302 8.073,5.944 v 0 c -3.292,-1.591 -6.065,-3.628 -8.337,-5.839 v 0 c -2.31,-2.204 -4.159,-4.58 -5.816,-6.991 v 0 c -3.257,-4.837 -5.632,-9.854 -7.726,-14.884 v 0 c -4.16,-10.066 -7.144,-20.24 -10.964,-30.289 v 0 c -1.916,-5.019 -4.023,-10.018 -6.783,-14.864 v 0 c -2.79,-4.794 -6.224,-9.616 -11.57,-13.204 v 0 c -1.343,-0.876 -2.798,-1.651 -4.365,-2.278 v 0 c -0.672,-0.28 -1.863,-0.722 -2.735,-1.159 v 0 c -0.934,-0.45 -1.761,-0.955 -2.579,-1.468 v 0 c -3.138,-2.123 -5.351,-4.573 -7.171,-7.038 v 0 c -0.359,-0.499 -0.693,-0.999 -1.025,-1.499 v 0 c -3.715,0.011 -7.657,-0.085 -11.779,-0.279 v 0 c -0.223,-4.047 -0.362,-8.098 -0.444,-12.145 v 0 c -0.019,-0.727 -0.015,-1.452 -0.027,-2.18 v 0 c 0.086,-0.06 0.169,-0.123 0.252,-0.185 v 0 l 0.058,-15.403 c 11.831,-7.577 20.228,-13.677 35.168,-19.849 v 0 c 1.968,-0.744 3.956,-1.479 6.344,-2.13 v 0 c 2.482,-0.605 4.935,-1.352 9.521,-1.322 v 0 c 2.091,-0.017 5.648,0.561 8.418,2.053 v 0 c 2.751,1.567 3.879,3.249 4.51,4.396 v 0 c 0.269,0.536 0.486,1.029 0.666,1.491 v 0 c 1.305,-0.342 2.717,-0.557 4.2,-0.625 v 0 c 1.078,-0.046 2.184,-0.025 3.315,0.084 v 0 c 0.364,0.038 0.721,0.093 1.079,0.147 v 0 c 8.542,-20.073 46.001,-28.044 80.138,-19.303 v 0 c 1.394,0.357 2.773,0.752 4.15,1.165 v 0 c 1.2,-0.857 2.423,-1.675 3.669,-2.456 v 0 c 3.266,-2.041 6.654,-3.908 10.096,-5.718 v 0 c 6.894,-3.608 14.009,-6.962 21.252,-10.187 v 0 c 14.5,-6.431 29.469,-12.393 44.933,-17.844 v 0 c 7.736,-2.719 15.609,-5.302 23.703,-7.629 v 0 c 4.049,-1.166 8.156,-2.262 12.368,-3.23 v 0 c 4.207,-0.969 8.515,-1.827 13.054,-2.331 v 0 c 2.274,-0.234 4.625,-0.383 7.107,-0.18 v 0 c 2.389,0.251 4.641,0.574 6.926,1.001 v 0 c 4.547,0.832 8.973,1.981 13.218,3.372 v 0 c 8.462,2.81 16.307,6.494 22.921,10.936 v 0 c -6.898,-4.249 -14.929,-7.668 -23.397,-10.175 v 0 c -4.247,-1.239 -8.627,-2.23 -13.068,-2.898 v 0 c -2.202,-0.344 -4.492,-0.599 -6.653,-0.758 v 0 c -2.079,-0.108 -4.242,0.086 -6.35,0.377 v 0 c -4.223,0.612 -8.334,1.578 -12.346,2.655 v 0 c -4.018,1.08 -7.953,2.29 -11.83,3.567 v 0 c -7.761,2.551 -15.306,5.359 -22.716,8.298 v 0 c -14.805,5.894 -29.116,12.29 -42.844,19.099 v 0 c -6.851,3.41 -13.556,6.939 -19.908,10.641 v 0 c -3.166,1.856 -6.259,3.755 -9.098,5.726 v 0 c -0.526,0.37 -1.033,0.742 -1.544,1.114 v 0 c 12.784,5.318 24.224,13.363 33.327,24.477 v 0 c 6.226,0.122 12.457,0.333 18.681,0.649 v 0 c 21.988,1.089 43.871,3.383 65.568,5.992 v 0 c 10.85,1.29 21.664,2.652 32.471,3.757 v 0 c 10.771,1.045 21.674,2.001 32.122,1.252 v 0 c 5.176,-0.404 10.239,-1.296 14.353,-3.198 v 0 c 4.194,-1.956 8.356,-3.959 12.151,-6.234 v 0 c 3.809,-2.257 7.392,-4.687 10.461,-7.393 v 0 c 1.56,-1.338 2.92,-2.778 4.129,-4.275 v 0 c 0.798,-1.022 1.532,-2.083 2.052,-3.195 v 0 0.276 c -0.445,1.044 -1.069,2.051 -1.751,3.026 v 0 c -1.115,1.545 -2.395,3.039 -3.875,4.435 v 0 c -2.915,2.824 -6.366,5.381 -10.061,7.775 v 0 c -3.68,2.408 -7.739,4.548 -11.844,6.651 v 0 c -4.264,2.16 -9.645,3.268 -15.019,3.833 v 0 c -10.867,1.069 -21.983,0.366 -32.899,-0.402 v 0 c -10.941,-0.83 -21.823,-1.917 -32.681,-2.921 v 0 c -21.707,-2.037 -43.377,-3.736 -64.92,-4.237 v 0 c -4.917,-0.122 -9.821,-0.172 -14.717,-0.169 v 0 c 9.771,14.221 16.107,32.748 17.404,56.142 v 0 c 8.248,9.391 16.798,33.663 -10.431,48.075 v 0 c 0,0 17.882,-21.302 -26.531,-36.687 v 0 c -12.763,1.784 -16.9,8.891 -5.214,18.38 v 0 c -16.385,-5.199 -23.443,-14.793 -22.463,-22.603 v 0 C 568.45,316.564 550.508,288.969 547.315,269.173 v 0 c -0.484,-0.019 -0.975,-0.05 -1.47,-0.099 v 0 c -0.098,-0.009 -0.194,-0.028 -0.292,-0.038 v 0 c -1.063,-0.121 -2.086,-0.31 -3.066,-0.56 v 0 c 0.034,0.85 0.071,1.696 0.109,2.549 v 0 c 0.414,10.843 0.711,21.565 2.089,32.229 v 0 c 1.54,10.52 3.422,21.545 10.26,30.61 v 0 c 0.433,0.527 0.893,1.034 1.37,1.525 v 0 c 1.498,1.536 3.204,2.879 5.141,3.833 v 0 c 2.648,1.379 7.638,3.32 10.642,5.207 v 0 c 6.999,3.766 13.097,7.88 19.255,11.985 v 0 c 12.148,8.263 23.607,16.822 35.031,25.388 v 0 l 34.183,25.689 c 11.575,8.439 23.02,17.016 36.367,24.314 v 0 c -13.852,-6.892 -25.97,-15.169 -38.149,-23.269 M 658.568,266 c 7.109,5.797 13.409,12.132 19.719,18.66 v 0 c -2.456,-6.486 -6.298,-12.873 -11.483,-18.922 v 0 c -2.752,0.065 -5.498,0.154 -8.236,0.262 m -65.952,-25.284 c 11.877,0.028 23.778,2.489 34.402,6.614 v 0 c 8.634,3.358 16.476,7.73 23.588,12.681 v 0 c 3.519,-0.087 7.043,-0.154 10.572,-0.175 v 0 C 653.576,252.661 643.723,246.128 631.8,241.51 v 0 c -12.261,-4.778 -26.838,-7.253 -40.481,-6.164 v 0 c -6.786,0.56 -13.29,2.026 -18.736,4.41 v 0 c -2.69,1.226 -5.12,2.652 -7.158,4.267 v 0 c -1.966,1.667 -3.541,3.497 -4.516,5.458 v 0 c 2.02,-1.553 4.232,-2.893 6.629,-4.036 v 0 c 2.494,-1.074 5.038,-2.026 7.804,-2.701 v 0 c 5.469,-1.372 11.327,-2.028 17.233,-2.028 v 0 z M 117.48,270.877 c -4.048,-1.629 -8.353,-3.012 -12.808,-4.132 v 0 c 17.604,-18.26 40.01,-26.739 62.731,-27.419 v 0 c 10.236,0.878 20.506,3.063 30.082,6.303 v 0 c 2.148,0.724 4.251,1.518 6.33,2.34 v 0 c -4.103,-0.484 -8.236,-0.834 -12.39,-1.007 v 0 c -10.004,-0.425 -20.137,0.153 -29.534,2.101 v 0 c -9.398,1.939 -17.955,5.153 -25.225,9.198 v 0 c -6.936,3.815 -12.624,8.4 -17.534,13.25 v 0 c -0.051,0.003 -0.105,0.005 -0.156,0.007 v 0 c -0.503,-0.21 -0.987,-0.434 -1.496,-0.641"
         id="path282" />
    </clipPath>
    <clipPath
       clipPathUnits="userSpaceOnUse"
       id="clipPath294">
      <path
         d="M 27.149414,457.49703 H 867.92517 V 175.67737 H 27.149414 Z"
         id="path292" />
    </clipPath>
    <linearGradient
       x1="0"
       y1="0"
       x2="1"
       y2="0"
       gradientUnits="userSpaceOnUse"
       gradientTransform="matrix(840.77576,0,0,-840.77588,27.149414,316.61915)"
       spreadMethod="pad"
       id="linearGradient300">
      <stop
         style="stop-opacity:1;stop-color:#ffffff"
         offset="0"
         id="stop296" />
      <stop
         style="stop-opacity:1;stop-color:#231f20"
         offset="1"
         id="stop298" />
    </linearGradient>
    <clipPath
       clipPathUnits="userSpaceOnUse"
       id="clipPath310">
      <path
         d="M 0,900 H 900 V 0 H 0 Z"
         id="path308" />
    </clipPath>
  </defs>
  <sodipodi:namedview
     id="namedview270"
     pagecolor="#ffffff"
     bordercolor="#000000"
     borderopacity="0.25"
     inkscape:showpageshadow="2"
     inkscape:pageopacity="0.0"
     inkscape:pagecheckerboard="0"
     inkscape:deskcolor="#d1d1d1"
     showgrid="false"
     inkscape:zoom="0.6975"
     inkscape:cx="600"
     inkscape:cy="600.71685"
     inkscape:window-width="1920"
     inkscape:window-height="1017"
     inkscape:window-x="-8"
     inkscape:window-y="-8"
     inkscape:window-maximized="1"
     inkscape:current-layer="g276">
    <inkscape:page
       x="0"
       y="0"
       id="page274"
       width="1200"
       height="1200" />
  </sodipodi:namedview>
  <g
     id="g276"
     inkscape:groupmode="layer"
     inkscape:label="Page 1"
     transform="matrix(1.3333333,0,0,-1.3333333,0,1200)">
    <g
       id="g278">
      <g
         id="g280"
         clip-path="url(#clipPath284)">
        <g
           id="g286">
          <g
             id="g288">
            <g
               id="g290"
               clip-path="url(#clipPath294)">
              <path
                 d="m 526.315,457.496 c -2.615,-1.531 -4.836,-3.361 -6.732,-5.286 v 0 c -2.502,-2.54 -4.47,-5.272 -6.15,-8.04 v 0 c -3.344,-5.557 -5.598,-11.291 -7.54,-17.018 v 0 c -3.842,-11.465 -6.276,-22.998 -9.78,-34.342 v 0 c -1.766,-5.66 -3.768,-11.304 -6.734,-16.617 v 0 c -1.484,-2.644 -3.259,-5.207 -5.472,-7.418 v 0 c -1.128,-1.148 -2.208,-1.914 -3.964,-3.373 v 0 c -1.505,-1.335 -2.925,-2.7 -4.129,-4.104 v 0 c -4.925,-5.617 -7.862,-11.513 -10.229,-17.359 v 0 c -2.313,-5.863 -3.907,-11.73 -5.143,-17.581 v 0 c -2.204,-10.685 -3.31,-21.335 -3.952,-31.927 v 0 c -18.788,-1.889 -39.369,-5.162 -58.229,-9.056 v 0 c -1.193,4.273 -2.425,8.546 -3.765,12.808 v 0 c -3.1,9.747 -6.54,19.487 -11.735,28.962 v 0 c -2.664,4.718 -5.677,9.414 -10.285,13.734 v 0 c -2.331,2.142 -5.11,4.228 -8.991,5.782 v 0 l -1.514,0.54 c -0.533,0.161 -1.087,0.306 -1.632,0.455 v 0 c -1.092,0.26 -2.507,0.488 -3.026,0.579 v 0 c -1.452,0.255 -2.862,0.656 -4.221,1.181 v 0 c -5.452,2.167 -9.71,6.03 -13.284,10.056 v 0 c -3.573,4.083 -6.574,8.486 -9.387,12.959 v 0 c -5.625,8.956 -10.471,18.25 -16.481,27.206 v 0 c -3.017,4.471 -6.324,8.877 -10.475,12.929 v 0 c -2.104,2.006 -4.396,3.94 -7.107,5.613 v 0 c -2.677,1.68 -5.809,3.084 -9.333,3.942 v 0 c 6.906,-2.014 11.564,-5.975 15.301,-10.057 v 0 c 3.708,-4.151 6.567,-8.635 9.145,-13.185 v 0 c 0.632,-1.123 1.206,-2.27 1.807,-3.402 v 0 c 4.279,-8.065 7.902,-16.324 12.162,-24.493 v 0 c 2.439,-4.658 5.081,-9.292 8.459,-13.781 v 0 c 0.974,-1.267 2.013,-2.525 3.145,-3.758 v 0 c 0.586,-0.739 1.17,-1.484 1.8,-2.198 v 0 c 1.838,-1.962 3.788,-3.87 6.119,-5.429 v 0 c 2.329,-1.546 4.961,-2.781 7.829,-3.414 v 0 l 1.083,-0.213 0.538,-0.114 0.842,-0.155 c 1.18,-0.196 2.25,-0.501 3.291,-0.825 v 0 c 1.24,-0.394 2.346,-0.87 3.376,-1.382 v 0 c 0.963,-0.748 1.865,-1.572 2.688,-2.452 v 0 c 3.52,-3.768 5.984,-8.238 8.063,-12.772 v 0 c 4.082,-9.144 6.61,-18.802 8.779,-28.508 v 0 c 2.157,-9.721 3.798,-19.546 5.587,-29.452 v 0 c 0.188,-1.009 0.374,-2.016 0.565,-3.021 v 0 c -1.484,6.199 -2.967,12.371 -4.565,18.502 v 0 c -0.466,-0.11 -0.92,-0.223 -1.379,-0.329 v 0 c -2.207,3.562 -4.718,7.048 -7.742,10.362 v 0 c -2.022,2.206 -4.283,4.333 -6.893,6.291 v 0 c -1.29,0.99 -2.721,1.908 -4.205,2.791 v 0 l -2.302,1.237 c -0.718,0.364 -1.413,0.751 -2.098,1.148 v 0 c -2.028,1.199 -3.894,2.525 -5.636,3.936 v 0 c -0.998,3.991 -5.309,8.654 -12.733,13.454 v 0 c -5.504,6.927 -10.414,14.143 -16.19,21.041 v 0 c -3.706,4.419 -7.747,8.738 -12.708,12.584 v 0 c -4.932,3.83 -10.954,7.195 -18.273,8.997 v 0 c 7.189,-1.978 12.93,-5.456 17.587,-9.369 v 0 c 4.681,-3.929 8.434,-8.308 11.856,-12.79 v 0 c 4.229,-5.542 7.904,-11.281 11.806,-16.976 v 0 C 292.091,347.18 182.202,369.896 27.721,334.721 v 0 c 7.84,-23.889 34.318,-57.29 68.738,-65.286 v 0 c 5.155,0.67 10.274,1.768 15.199,3.26 v 0 c -1.996,0.478 -3.894,1.045 -5.729,1.636 v 0 c -4.415,1.486 -8.429,3.276 -12.244,5.185 v 0 c -7.602,3.842 -14.383,8.227 -20.442,12.995 v 0 c -6.084,4.751 -11.463,9.894 -15.791,15.44 v 0 c -2.173,2.766 -4.001,5.667 -5.4,8.672 v 0 c -1.388,2.999 -2.225,6.157 -2.129,9.351 v 0 c 0.408,-3.156 1.824,-6.121 3.567,-8.955 v 0 c 1.754,-2.834 4.001,-5.507 6.41,-8.092 v 0 c 4.876,-5.156 10.697,-9.886 17,-14.282 v 0 c 6.365,-4.358 13.242,-8.406 20.716,-11.859 v 0 c 3.744,-1.713 7.655,-3.267 11.722,-4.513 v 0 c 3.76,-1.157 7.785,-2.085 11.589,-2.236 v 0 c 8.863,3.694 16.862,8.476 23.773,13.834 v 0 c 8.437,6.502 15.365,13.82 21.335,21.391 v 0 c -5.179,-7.773 -11.37,-15.394 -19.314,-22.376 v 0 c -6.086,-5.374 -13.272,-10.376 -21.57,-14.534 v 0 c 4.844,-4.536 10.409,-8.679 16.774,-12.177 v 0 c 6.732,-3.671 14.478,-6.509 22.944,-8.202 v 0 c 8.445,-1.723 17.548,-2.363 26.786,-2.006 v 0 c 9.135,0.35 18.352,1.574 27.459,3.258 v 0 c 4.039,2.267 7.864,4.718 11.443,7.314 v 0 c 9.607,6.855 17.382,14.755 23.868,23.001 v 0 c -5.695,-8.448 -12.758,-16.681 -21.916,-24.041 v 0 c -2.887,-2.358 -6.004,-4.618 -9.292,-6.78 v 0 c 7.781,-3.158 16.066,-5.807 24.818,-7.682 v 0 c 9.093,-1.933 18.783,-2.86 28.612,-2.483 v 0 c 9.827,0.391 19.73,2.255 28.924,5.326 v 0 c 4.588,1.543 9.043,3.333 13.3,5.345 v 0 c 4.208,2.051 8.29,4.248 12.182,6.608 v 0 c -3.525,-2.581 -7.214,-5.103 -11.254,-7.391 v 0 c -4.063,-2.274 -8.377,-4.384 -12.995,-6.186 v 0 c -4.607,-1.809 -9.485,-3.351 -14.552,-4.522 v 0 c -5.074,-1.154 -10.32,-1.949 -15.589,-2.36 v 0 c -10.568,-0.861 -21.105,-0.052 -30.951,1.706 v 0 c -9.37,1.654 -18.055,4.326 -26.241,7.402 v 0 c -1.612,-0.322 -3.231,-0.63 -4.859,-0.916 v 0 c -4.668,-2.537 -9.621,-4.865 -14.869,-6.898 v 0 c -2.11,-0.818 -4.278,-1.575 -6.471,-2.299 v 0 c 37.1,-23.959 92.849,-15.072 122.297,1.474 v 0 c 0.921,-1.928 1.793,-3.874 2.595,-5.838 v 0 c 2.205,-5.427 4.01,-10.967 5.66,-16.539 v 0 c 1.647,-5.576 3.111,-11.194 4.577,-16.831 v 0 c 1.5,-5.643 2.863,-11.284 4.932,-16.99 v 0 c 0.543,-1.433 1.129,-2.863 2.002,-4.364 v 0 c 0.476,-0.763 0.911,-1.513 1.92,-2.426 v 0 c 0.341,-0.26 0.506,-0.447 1.031,-0.746 v 0 c 0.469,-0.275 1.071,-0.526 1.733,-0.701 v 0 c 1.353,-0.363 2.82,-0.35 3.929,-0.207 v 0 c 2.249,0.316 3.6,0.902 4.851,1.43 v 0 c 1.23,0.547 2.272,1.115 3.257,1.688 v 0 c 1.95,1.148 3.651,2.326 5.285,3.525 v 0 c 6.449,4.788 11.91,9.793 17.277,14.847 v 0 c 7.299,6.961 14.189,14.016 20.876,21.157 v 0 c 1.197,-6.112 2.373,-12.246 3.755,-18.405 v 0 c 0.608,-2.568 1.242,-5.137 2.167,-7.757 v 0 c 0.503,-1.329 0.957,-2.619 1.986,-4.122 v 0 c 0.237,-0.362 0.6,-0.79 1.021,-1.212 v 0 c 0.581,-0.503 1.131,-0.952 2.194,-1.379 v 0 c 0.988,-0.427 2.717,-0.735 4.303,-0.554 v 0 c 1.586,0.163 2.747,0.612 3.576,0.999 v 0 c 1.641,0.803 2.487,1.546 3.297,2.248 v 0 c 0.781,0.701 1.407,1.375 1.99,2.043 v 0 c 1.148,1.331 2.085,2.632 2.967,3.931 v 0 c 1.74,2.598 3.208,5.175 4.588,7.758 v 0 c 2.699,5.149 5.095,10.288 7.304,15.444 v 0 c 2.295,-0.441 4.588,-0.844 6.865,-1.198 v 0 c 1.749,-2.838 3.576,-5.646 5.539,-8.443 v 0 c 1.607,-2.279 3.298,-4.542 5.168,-6.772 v 0 c 1.913,-2.234 3.864,-4.436 6.676,-6.594 v 0 c 0.727,-0.54 1.515,-1.08 2.527,-1.61 v 0 c 1.046,-0.509 2.196,-1.113 4.487,-1.377 v 0 c 1.115,-0.118 2.62,-0.067 3.961,0.33 v 0 c 1.307,0.365 2.374,0.948 3.017,1.446 v 0 c 0.686,0.502 1.148,0.992 1.605,1.587 v 0 c 0.331,0.48 0.603,0.944 0.771,1.331 v 0 c 0.729,1.598 1.015,2.928 1.304,4.282 v 0 c 0.271,1.342 0.473,2.654 0.645,3.957 v 0 c 0.448,3.583 0.724,7.113 0.96,10.631 v 0 c 10.015,1.238 18.91,4.06 25.959,8.866 v 0 c 6.163,4.203 11.328,8.345 15.594,12.398 v 0 c -0.973,0.319 -1.896,0.652 -2.794,0.985 v 0 c -4.192,1.605 -7.807,3.328 -11.343,5.095 v 0 c -3.516,1.773 -6.883,3.596 -10.177,5.45 v 0 c -6.943,3.933 -13.598,7.962 -20.116,12.081 v 0 c 0.026,-3.814 0.041,-7.644 -0.001,-11.506 v 0 c -0.053,-2.886 -0.125,-5.772 -0.427,-8.811 v 0 c -0.161,-1.533 -0.349,-3.071 -0.813,-4.865 v 0 c -0.261,-0.915 -0.491,-1.83 -1.339,-3.278 v 0 c -0.117,-0.186 -0.199,-0.335 -0.352,-0.55 v 0 c -0.185,-0.25 -0.383,-0.493 -0.588,-0.735 v 0 c -0.413,-0.485 -0.869,-0.942 -1.614,-1.503 v 0 c -0.745,-0.55 -1.687,-1.154 -3.087,-1.701 v 0 c -1.367,-0.546 -3.099,-0.942 -4.688,-1.056 v 0 c -3.278,-0.214 -5.252,0.393 -6.548,0.799 v 0 c -1.32,0.452 -2.163,0.892 -2.885,1.29 v 0 c -1.405,0.806 -2.32,1.519 -3.176,2.213 v 0 c -1.661,1.38 -2.918,2.678 -4.113,3.972 v 0 c -2.35,2.588 -4.324,5.14 -6.212,7.707 v 0 c -4.116,5.696 -7.804,11.407 -11.28,17.164 v 0 c -0.278,-1.039 -0.557,-2.079 -0.858,-3.128 v 0 c -0.744,-2.585 -1.558,-5.176 -2.526,-7.813 v 0 c -0.986,-2.647 -2.036,-5.279 -3.704,-8.194 v 0 c -0.434,-0.737 -0.893,-1.485 -1.5,-2.311 v 0 c -0.619,-0.825 -1.3,-1.7 -2.521,-2.8 v 0 c -0.291,-0.265 -0.706,-0.592 -1.086,-0.881 v 0 c -0.522,-0.356 -0.887,-0.632 -1.626,-1.028 v 0 c -0.355,-0.19 -0.633,-0.346 -1.078,-0.541 v 0 c -0.445,-0.195 -0.907,-0.379 -1.374,-0.545 v 0 c -1.089,-0.36 -2.273,-0.666 -3.685,-0.811 v 0 c -2.774,-0.314 -5.401,0.189 -6.879,0.745 v 0 c -0.412,0.145 -0.671,0.264 -1.005,0.413 v 0 c -0.306,0.138 -0.642,0.297 -0.842,0.418 v 0 c -0.463,0.266 -0.893,0.511 -1.328,0.86 v 0 c -1.755,1.398 -2.101,2.173 -2.651,2.97 v 0 c -0.252,0.4 -0.46,0.772 -0.635,1.122 v 0 c -0.197,0.366 -0.359,0.711 -0.513,1.05 v 0 c -0.619,1.363 -1.099,2.648 -1.533,3.921 v 0 c -0.311,0.941 -0.592,1.87 -0.874,2.8 v 0 c 0.199,-0.445 0.416,-0.899 0.704,-1.399 v 0 c 0.202,-0.38 0.498,-0.831 0.837,-1.294 v 0 c 0.132,-0.203 0.422,-0.523 0.655,-0.785 v 0 l 0.383,-0.404 0.624,-0.534 c 0.217,-0.172 0.443,-0.343 0.672,-0.506 v 0 l 0.663,-0.407 c 0.392,-0.248 1.066,-0.568 1.708,-0.828 v 0 c 1.428,-0.558 3.692,-1.135 6.567,-0.951 v 0 c 2.898,0.188 5.121,1.07 6.494,1.78 v 0 c 1.467,0.766 2.174,1.362 2.908,1.961 v 0 c 1.267,1.119 1.964,2.003 2.595,2.838 v 0 c 0.607,0.822 1.085,1.582 1.52,2.322 v 0 c 1.687,2.926 2.737,5.566 3.733,8.221 v 0 c 0.968,2.64 1.788,5.239 2.535,7.829 v 0 c 0.302,1.06 0.585,2.111 0.865,3.164 v 0 c 1.066,-1.768 2.149,-3.532 3.262,-5.29 v 0 c 2.591,-4.086 5.321,-8.156 8.273,-12.222 v 0 c 1.923,-2.593 3.93,-5.173 6.362,-7.793 v 0 c 1.242,-1.317 2.537,-2.632 4.36,-4.059 v 0 c 0.959,-0.719 1.939,-1.461 3.792,-2.341 v 0 c 0.982,-0.425 2.111,-0.935 4.332,-1.298 v 0 c 1.103,-0.166 2.497,-0.272 4.148,-0.116 v 0 c 1.639,0.145 3.367,0.593 4.68,1.157 v 0 c 1.346,0.562 2.295,1.187 2.968,1.715 v 0 c 0.711,0.554 1.142,1.013 1.567,1.53 v 0 c 0.199,0.244 0.433,0.538 0.568,0.745 v 0 l 0.333,0.558 0.307,0.559 0.193,0.442 c 0.521,1.224 0.688,2.095 0.88,2.999 v 0 c 0.324,1.736 0.444,3.287 0.526,4.82 v 0 c 0.142,3.042 0.099,5.961 0.021,8.861 v 0 c -0.371,11.563 -1.18,22.876 -1.379,34.242 v 0 c -0.216,11.348 0,22.704 1.524,33.992 v 0 c 0.781,5.639 1.903,11.263 3.677,16.785 v 0 c 0.084,0.264 0.181,0.529 0.269,0.792 v 0 c 1.767,5.231 4.087,10.416 7.761,15.048 v 0 c 0.937,1.227 2.034,2.371 3.171,3.488 v 0 c 1.025,0.931 2.886,2.489 4.102,3.913 v 0 c 2.553,2.898 4.256,5.856 5.632,8.787 v 0 c 2.711,5.872 4.215,11.696 5.504,17.485 v 0 c 2.525,11.571 3.912,23.052 6.703,34.476 v 0 c 1.416,5.699 3.137,11.4 5.944,16.949 v 0 c 1.413,2.769 3.105,5.502 5.349,8.077 v 0 c 1.732,1.982 3.8,3.887 6.327,5.514 v 0 z M 409.338,250.092 c 0.138,-0.128 0.183,-0.183 0.175,-0.183 v 0 c -0.007,0 -0.086,0.072 -0.175,0.183 m 44.025,-6.523 c 0.005,0.012 0.016,0.024 0.026,0.038 v 0 c 0.009,0.01 0.031,0.044 0.048,0.072 v 0 c -0.012,-0.022 -0.024,-0.055 -0.039,-0.072 v 0 l -0.037,-0.084 c -0.004,0.014 -0.002,0.029 0.002,0.046 m 205.422,164.967 -35.999,-24.665 c -11.995,-8.203 -24.025,-16.391 -36.528,-24.149 v 0 c -6.283,-3.822 -12.606,-7.699 -19.276,-10.956 v 0 c -3.505,-1.914 -6.179,-2.699 -10.535,-4.666 v 0 c -4.537,-2.043 -7.698,-4.774 -10.192,-7.464 v 0 c -9.148,-11.011 -11.448,-22.244 -14.01,-33.231 v 0 c -1.452,-7.104 -2.419,-14.177 -3.264,-21.207 v 0 c -3.476,3.85 -8.26,7.253 -14.21,10.112 v 0 c -4.792,2.306 -12.647,3.491 -22.462,3.79 v 0 c 0.12,0.182 0.211,0.371 0.33,0.552 v 0 c 1.573,2.299 3.494,4.504 5.991,6.28 v 0 c 0.644,0.418 1.29,0.84 1.997,1.197 v 0 c 0.738,0.381 1.32,0.607 2.358,1.051 v 0 c 1.883,0.797 3.58,1.757 5.09,2.79 v 0 c 2.997,2.095 5.297,4.466 7.182,6.889 v 0 c 1.903,2.422 3.403,4.919 4.742,7.42 v 0 c 2.634,5.019 4.548,10.096 6.272,15.169 v 0 c 3.424,10.15 5.976,20.322 9.704,30.388 v 0 c 1.879,5.03 4.033,10.042 7.073,14.889 v 0 c 1.546,2.414 3.289,4.795 5.492,7.018 v 0 c 2.169,2.232 4.842,4.302 8.073,5.944 v 0 c -3.292,-1.591 -6.065,-3.628 -8.337,-5.839 v 0 c -2.31,-2.204 -4.159,-4.58 -5.816,-6.991 v 0 c -3.257,-4.837 -5.632,-9.854 -7.726,-14.884 v 0 c -4.16,-10.066 -7.144,-20.24 -10.964,-30.289 v 0 c -1.916,-5.019 -4.023,-10.018 -6.783,-14.864 v 0 c -2.79,-4.794 -6.224,-9.616 -11.57,-13.204 v 0 c -1.343,-0.876 -2.798,-1.651 -4.365,-2.278 v 0 c -0.672,-0.28 -1.863,-0.722 -2.735,-1.159 v 0 c -0.934,-0.45 -1.761,-0.955 -2.579,-1.468 v 0 c -3.138,-2.123 -5.351,-4.573 -7.171,-7.038 v 0 c -0.359,-0.499 -0.693,-0.999 -1.025,-1.499 v 0 c -3.715,0.011 -7.657,-0.085 -11.779,-0.279 v 0 c -0.223,-4.047 -0.362,-8.098 -0.444,-12.145 v 0 c -0.019,-0.727 -0.015,-1.452 -0.027,-2.18 v 0 c 0.086,-0.06 0.169,-0.123 0.252,-0.185 v 0 l 0.058,-15.403 c 11.831,-7.577 20.228,-13.677 35.168,-19.849 v 0 c 1.968,-0.744 3.956,-1.479 6.344,-2.13 v 0 c 2.482,-0.605 4.935,-1.352 9.521,-1.322 v 0 c 2.091,-0.017 5.648,0.561 8.418,2.053 v 0 c 2.751,1.567 3.879,3.249 4.51,4.396 v 0 c 0.269,0.536 0.486,1.029 0.666,1.491 v 0 c 1.305,-0.342 2.717,-0.557 4.2,-0.625 v 0 c 1.078,-0.046 2.184,-0.025 3.315,0.084 v 0 c 0.364,0.038 0.721,0.093 1.079,0.147 v 0 c 8.542,-20.073 46.001,-28.044 80.138,-19.303 v 0 c 1.394,0.357 2.773,0.752 4.15,1.165 v 0 c 1.2,-0.857 2.423,-1.675 3.669,-2.456 v 0 c 3.266,-2.041 6.654,-3.908 10.096,-5.718 v 0 c 6.894,-3.608 14.009,-6.962 21.252,-10.187 v 0 c 14.5,-6.431 29.469,-12.393 44.933,-17.844 v 0 c 7.736,-2.719 15.609,-5.302 23.703,-7.629 v 0 c 4.049,-1.166 8.156,-2.262 12.368,-3.23 v 0 c 4.207,-0.969 8.515,-1.827 13.054,-2.331 v 0 c 2.274,-0.234 4.625,-0.383 7.107,-0.18 v 0 c 2.389,0.251 4.641,0.574 6.926,1.001 v 0 c 4.547,0.832 8.973,1.981 13.218,3.372 v 0 c 8.462,2.81 16.307,6.494 22.921,10.936 v 0 c -6.898,-4.249 -14.929,-7.668 -23.397,-10.175 v 0 c -4.247,-1.239 -8.627,-2.23 -13.068,-2.898 v 0 c -2.202,-0.344 -4.492,-0.599 -6.653,-0.758 v 0 c -2.079,-0.108 -4.242,0.086 -6.35,0.377 v 0 c -4.223,0.612 -8.334,1.578 -12.346,2.655 v 0 c -4.018,1.08 -7.953,2.29 -11.83,3.567 v 0 c -7.761,2.551 -15.306,5.359 -22.716,8.298 v 0 c -14.805,5.894 -29.116,12.29 -42.844,19.099 v 0 c -6.851,3.41 -13.556,6.939 -19.908,10.641 v 0 c -3.166,1.856 -6.259,3.755 -9.098,5.726 v 0 c -0.526,0.37 -1.033,0.742 -1.544,1.114 v 0 c 12.784,5.318 24.224,13.363 33.327,24.477 v 0 c 6.226,0.122 12.457,0.333 18.681,0.649 v 0 c 21.988,1.089 43.871,3.383 65.568,5.992 v 0 c 10.85,1.29 21.664,2.652 32.471,3.757 v 0 c 10.771,1.045 21.674,2.001 32.122,1.252 v 0 c 5.176,-0.404 10.239,-1.296 14.353,-3.198 v 0 c 4.194,-1.956 8.356,-3.959 12.151,-6.234 v 0 c 3.809,-2.257 7.392,-4.687 10.461,-7.393 v 0 c 1.56,-1.338 2.92,-2.778 4.129,-4.275 v 0 c 0.798,-1.022 1.532,-2.083 2.052,-3.195 v 0 0.276 c -0.445,1.044 -1.069,2.051 -1.751,3.026 v 0 c -1.115,1.545 -2.395,3.039 -3.875,4.435 v 0 c -2.915,2.824 -6.366,5.381 -10.061,7.775 v 0 c -3.68,2.408 -7.739,4.548 -11.844,6.651 v 0 c -4.264,2.16 -9.645,3.268 -15.019,3.833 v 0 c -10.867,1.069 -21.983,0.366 -32.899,-0.402 v 0 c -10.941,-0.83 -21.823,-1.917 -32.681,-2.921 v 0 c -21.707,-2.037 -43.377,-3.736 -64.92,-4.237 v 0 c -4.917,-0.122 -9.821,-0.172 -14.717,-0.169 v 0 c 9.771,14.221 16.107,32.748 17.404,56.142 v 0 c 8.248,9.391 16.798,33.663 -10.431,48.075 v 0 c 0,0 17.882,-21.302 -26.531,-36.687 v 0 c -12.763,1.784 -16.9,8.891 -5.214,18.38 v 0 c -16.385,-5.199 -23.443,-14.793 -22.463,-22.603 v 0 C 568.45,316.564 550.508,288.969 547.315,269.173 v 0 c -0.484,-0.019 -0.975,-0.05 -1.47,-0.099 v 0 c -0.098,-0.009 -0.194,-0.028 -0.292,-0.038 v 0 c -1.063,-0.121 -2.086,-0.31 -3.066,-0.56 v 0 c 0.034,0.85 0.071,1.696 0.109,2.549 v 0 c 0.414,10.843 0.711,21.565 2.089,32.229 v 0 c 1.54,10.52 3.422,21.545 10.26,30.61 v 0 c 0.433,0.527 0.893,1.034 1.37,1.525 v 0 c 1.498,1.536 3.204,2.879 5.141,3.833 v 0 c 2.648,1.379 7.638,3.32 10.642,5.207 v 0 c 6.999,3.766 13.097,7.88 19.255,11.985 v 0 c 12.148,8.263 23.607,16.822 35.031,25.388 v 0 l 34.183,25.689 c 11.575,8.439 23.02,17.016 36.367,24.314 v 0 c -13.852,-6.892 -25.97,-15.169 -38.149,-23.269 M 658.568,266 c 7.109,5.797 13.409,12.132 19.719,18.66 v 0 c -2.456,-6.486 -6.298,-12.873 -11.483,-18.922 v 0 c -2.752,0.065 -5.498,0.154 -8.236,0.262 m -65.952,-25.284 c 11.877,0.028 23.778,2.489 34.402,6.614 v 0 c 8.634,3.358 16.476,7.73 23.588,12.681 v 0 c 3.519,-0.087 7.043,-0.154 10.572,-0.175 v 0 C 653.576,252.661 643.723,246.128 631.8,241.51 v 0 c -12.261,-4.778 -26.838,-7.253 -40.481,-6.164 v 0 c -6.786,0.56 -13.29,2.026 -18.736,4.41 v 0 c -2.69,1.226 -5.12,2.652 -7.158,4.267 v 0 c -1.966,1.667 -3.541,3.497 -4.516,5.458 v 0 c 2.02,-1.553 4.232,-2.893 6.629,-4.036 v 0 c 2.494,-1.074 5.038,-2.026 7.804,-2.701 v 0 c 5.469,-1.372 11.327,-2.028 17.233,-2.028 v 0 z M 117.48,270.877 c -4.048,-1.629 -8.353,-3.012 -12.808,-4.132 v 0 c 17.604,-18.26 40.01,-26.739 62.731,-27.419 v 0 c 10.236,0.878 20.506,3.063 30.082,6.303 v 0 c 2.148,0.724 4.251,1.518 6.33,2.34 v 0 c -4.103,-0.484 -8.236,-0.834 -12.39,-1.007 v 0 c -10.004,-0.425 -20.137,0.153 -29.534,2.101 v 0 c -9.398,1.939 -17.955,5.153 -25.225,9.198 v 0 c -6.936,3.815 -12.624,8.4 -17.534,13.25 v 0 c -0.051,0.003 -0.105,0.005 -0.156,0.007 v 0 c -0.503,-0.21 -0.987,-0.434 -1.496,-0.641"
                 style="fill:url(#linearGradient300);stroke:none"
                 id="path302" />
            </g>
          </g>
        </g>
      </g>
    </g>
    <g
       id="g304">
      <g
         id="g306"
         clip-path="url(#clipPath310)">
        <g
           id="g312"
           transform="translate(663.2881,607.4121)">
          <path
             d="m 0,0 c -1.662,2.474 -3.418,4.893 -5.3,7.234 -0.284,0.352 -0.595,0.689 -0.885,1.04 -8.278,9.941 -18.73,18.538 -31.053,23.845 -12.676,5.51 -27.428,7.088 -40.897,3.287 -6.692,-1.919 -13.02,-5.198 -18.202,-9.737 -2.555,-2.313 -4.831,-4.898 -6.7,-7.716 -1.789,-2.888 -3.174,-5.967 -3.947,-9.154 1.853,2.72 3.921,5.137 6.193,7.278 2.375,2.05 4.809,3.922 7.495,5.394 5.32,2.98 11.097,4.905 16.989,5.817 11.822,1.795 23.904,-0.178 34.889,-4.928 8.925,-3.864 17.161,-9.42 24.732,-15.995 1.774,-1.535 3.517,-3.111 5.215,-4.755 1.117,-1.076 2.217,-2.174 3.301,-3.291 7.65,-7.882 14.549,-16.722 21.476,-25.86 C 10.217,-17.869 5.76,-8.568 0,0 m 198.7,62.28 c -0.137,-2.732 -0.904,-5.4 -1.827,-7.97 -0.957,-2.564 -2.083,-5.077 -3.418,-7.47 -2.619,-4.825 -5.799,-9.325 -9.236,-13.604 -3.42,-4.3 -7.248,-8.247 -11.125,-12.137 -4.027,-4.009 -9.271,-6.559 -14.561,-8.266 -10.71,-3.34 -21.839,-3.97 -32.778,-4.47 C 114.785,7.957 103.849,7.954 92.946,7.829 71.144,7.625 49.413,6.904 27.926,4.348 23.022,3.772 18.137,3.094 13.267,2.333 c 11.135,-20.522 19.28,-48.25 22.897,-84.299 9.141,-13.272 20.061,-49.556 -5.602,-76.103 0,0 15.676,35.775 -30.045,52.737 -12.525,-4.74 -15.933,-16.393 -3.359,-29.287 -16.824,5.518 -24.799,19.29 -24.599,31.544 -65.372,9.099 -85.97,49.08 -91.114,79.256 -0.485,-0.047 -0.975,-0.074 -1.472,-0.074 -0.1,0 -0.198,0.013 -0.296,0.015 -1.068,0.022 -2.106,0.157 -3.107,0.393 0.119,-1.311 0.24,-2.619 0.365,-3.93 1.487,-16.744 2.85,-33.305 5.282,-49.615 2.577,-16.066 5.547,-32.855 13.251,-45.846 0.484,-0.744 0.99,-1.461 1.515,-2.148 1.642,-2.146 3.476,-3.963 5.496,-5.139 2.773,-1.734 7.93,-3.966 11.108,-6.422 7.338,-4.752 13.817,-10.188 20.348,-15.589 12.911,-10.927 25.165,-22.413 37.385,-33.916 l 36.568,-34.515 c 12.353,-11.28 24.594,-22.802 38.601,-32.042 -14.468,8.535 -27.348,19.485 -40.272,30.143 l -38.273,32.652 c -12.753,10.85 -25.539,21.676 -38.749,31.763 -6.631,4.949 -13.308,9.975 -20.268,13.986 -3.678,2.425 -6.418,3.228 -10.948,5.6 -4.718,2.464 -8.133,6.206 -10.881,9.994 -10.198,15.644 -13.601,32.689 -17.246,49.316 -2.152,10.785 -3.816,21.593 -5.354,32.353 -3.078,-6.501 -7.501,-12.516 -13.137,-17.869 -4.538,-4.312 -12.246,-7.351 -21.978,-9.335 0.135,-0.266 0.248,-0.55 0.389,-0.812 1.792,-3.32 3.925,-6.443 6.584,-8.807 0.685,-0.553 1.368,-1.104 2.106,-1.542 0.775,-0.479 1.376,-0.739 2.451,-1.266 1.952,-0.945 3.739,-2.165 5.343,-3.539 3.189,-2.781 5.715,-6.097 7.83,-9.557 2.137,-3.462 3.878,-7.094 5.457,-10.769 3.119,-7.365 5.532,-14.937 7.746,-22.53 4.418,-15.194 7.97,-30.562 12.681,-45.585 2.37,-7.499 5.011,-14.933 8.515,-21.973 1.781,-3.499 3.751,-6.922 6.164,-10.024 2.38,-3.12 5.245,-5.911 8.624,-7.958 -3.433,1.953 -6.395,4.681 -8.876,7.758 -2.516,3.059 -4.595,6.451 -6.482,9.928 -3.723,6.994 -6.585,14.4 -9.167,21.865 -5.141,14.957 -9.12,30.259 -13.921,45.236 -2.405,7.479 -4.999,14.904 -8.228,21.984 -3.25,6.995 -7.151,13.936 -12.826,18.667 -1.42,1.149 -2.949,2.124 -4.567,2.854 -0.698,0.328 -1.927,0.83 -2.838,1.376 -0.973,0.547 -1.846,1.202 -2.714,1.872 -3.334,2.804 -5.777,6.257 -7.833,9.799 -0.408,0.715 -0.79,1.44 -1.171,2.162 -3.696,-0.589 -7.623,-1.054 -11.745,-1.391 -0.627,6.232 -1.166,12.486 -1.653,18.747 -0.089,1.123 -0.156,2.249 -0.24,3.372 0.076,0.108 0.155,0.217 0.232,0.325 l -1.473,23.876 c 11.02,13.573 18.767,24.325 33.017,36.196 1.887,1.464 3.792,2.908 6.105,4.287 2.406,1.321 4.773,2.86 9.338,3.519 2.081,0.354 5.679,0.007 8.582,-1.875 2.894,-2.001 4.182,-4.433 4.925,-6.112 0.322,-0.787 0.584,-1.518 0.81,-2.212 1.268,0.734 2.651,1.287 4.121,1.62 1.063,0.243 2.166,0.383 3.304,0.383 0.367,0 0.727,-0.031 1.089,-0.057 6.504,32.425 42.987,50.572 77.821,42.313 1.424,-0.338 2.837,-0.736 4.245,-1.164 1.11,1.514 2.245,2.972 3.407,4.373 3.048,3.668 6.233,7.084 9.478,10.426 6.501,6.651 13.246,12.949 20.133,19.069 13.789,12.213 28.094,23.765 42.939,34.607 7.431,5.409 15.003,10.63 22.826,15.493 3.913,2.429 7.891,4.764 11.983,6.916 4.091,2.152 8.294,4.147 12.76,5.629 2.24,0.716 4.565,1.313 7.057,1.382 2.399,-0.019 4.673,-0.172 6.989,-0.481 4.608,-0.583 9.126,-1.682 13.488,-3.176 8.699,-3.042 16.872,-7.536 23.894,-13.394 -7.288,5.511 -15.616,9.567 -24.293,12.143 -4.35,1.26 -8.806,2.116 -13.291,2.467 -2.226,0.192 -4.528,0.231 -6.695,0.143 -2.079,-0.155 -4.214,-0.79 -6.281,-1.568 -4.141,-1.603 -8.135,-3.733 -12.02,-6.025 -3.893,-2.294 -7.687,-4.777 -11.419,-7.354 C 56.616,122.414 49.387,116.894 42.305,111.195 28.158,99.769 14.555,87.646 1.573,74.968 -4.906,68.625 -11.225,62.122 -17.181,55.4 c -2.965,-3.364 -5.854,-6.789 -8.481,-10.283 -0.488,-0.653 -0.957,-1.308 -1.424,-1.963 13.248,-6.261 25.429,-16.951 35.592,-32.766 6.208,0.774 12.428,1.413 18.653,1.886 21.987,1.717 43.99,1.545 65.836,0.866 10.929,-0.321 21.825,-0.758 32.687,-0.795 10.821,0.047 21.766,0.256 32.086,3.031 5.111,1.428 10.061,3.596 13.964,7.177 3.979,3.682 7.923,7.43 11.472,11.539 3.565,4.088 6.89,8.406 9.673,13.074 1.42,2.318 2.633,4.757 3.685,7.263 1.02,2.513 1.891,5.129 2.138,7.851 M -275.653,11.871 c 0.016,0.257 0.034,0.516 0.05,0.772 -9.258,13.661 -18.899,27.193 -29.063,40.135 -5.525,6.957 -11.212,13.866 -17.367,19.871 -1.536,1.479 -3.113,2.896 -4.688,4.081 -0.787,0.59 -1.573,1.12 -2.292,1.512 -0.279,0.161 -0.552,0.281 -0.791,0.373 -0.19,-0.431 -0.394,-0.965 -0.565,-1.503 -0.596,-1.845 -1.07,-3.956 -1.488,-6.078 -1.615,-8.582 -2.65,-17.561 -3.792,-26.472 -1.12,-8.934 -2.241,-17.898 -3.557,-26.852 -1.319,-8.957 -2.801,-17.909 -4.711,-26.809 -0.865,-4.017 -1.826,-8.028 -2.905,-12.015 3.366,-2.752 6.346,-5.696 8.808,-8.803 4.381,-4.182 8.364,-8.797 11.921,-13.825 9.614,17.8 28.439,38.471 50.44,55.613 m -11.765,-79.536 c -12.024,2.789 -22.552,6.045 -30.332,9.556 6.21,-13.339 9.714,-29.1 9.657,-47.604 0.555,0.753 1.119,1.498 1.713,2.231 0.673,0.808 1.361,1.612 2.089,2.383 l 1.952,2.161 c 1.223,1.483 2.403,3.005 3.456,4.636 2.142,3.231 3.976,6.699 5.59,10.284 2.358,5.263 4.257,10.758 5.875,16.353 m 19.886,87.108 c 0.238,-0.334 0.478,-0.666 0.716,-0.999 7.156,5.07 14.55,9.699 21.988,13.699 -2.627,8.009 -5.435,15.943 -8.522,23.679 -1.484,3.658 -3.048,7.275 -4.77,10.689 -0.862,1.7 -1.771,3.359 -2.726,4.836 -0.296,0.453 -0.593,0.874 -0.891,1.275 -0.303,-1.093 -0.566,-2.339 -0.796,-3.559 -0.688,-3.756 -1.16,-7.714 -1.596,-11.671 -1.3,-12.535 -2.264,-25.242 -3.403,-37.949 m 50.622,24.388 c 5.523,1.591 10.935,2.665 16.158,3.144 -0.701,5.106 -1.443,10.19 -2.321,15.185 -0.339,1.897 -0.709,3.776 -1.12,5.596 -0.348,1.513 -0.75,3.04 -1.2,4.277 -0.263,-0.341 -0.533,-0.708 -0.799,-1.114 -1.804,-2.785 -3.372,-6.287 -4.791,-9.771 -1.42,-3.519 -2.71,-7.151 -3.924,-10.82 -0.704,-2.142 -1.34,-4.324 -2.003,-6.497 m 10.823,29.692 c -0.002,0.003 0.036,-0.027 0.045,-0.033 -0.028,0.02 -0.066,0.084 -0.045,0.033 m 88.078,-394.089 c -3.931,2.112 -7.211,5.309 -9.945,8.844 -2.745,3.55 -4.971,7.477 -6.92,11.51 -3.88,8.091 -6.693,16.628 -9.194,25.2 -4.962,17.171 -8.532,34.666 -13.145,51.7 -2.319,8.491 -4.871,16.928 -8.353,24.703 -1.741,3.87 -3.76,7.561 -6.182,10.645 -1.236,1.605 -2.388,2.624 -4.279,4.614 -1.631,1.834 -3.18,3.729 -4.518,5.721 -5.461,7.942 -8.965,16.622 -11.9,25.314 -2.886,8.723 -5.055,17.569 -6.869,26.442 -3.252,16.215 -5.414,32.548 -7.103,48.852 -18.884,0.023 -39.687,1.912 -58.844,5.023 -0.763,-6.801 -1.561,-13.613 -2.473,-20.425 -2.116,-15.585 -4.571,-31.207 -8.796,-46.693 -2.183,-7.723 -4.716,-15.462 -8.867,-22.876 -2.11,-3.677 -4.665,-7.336 -8.376,-10.347 l -1.452,-1.072 c -0.514,-0.331 -1.052,-0.642 -1.579,-0.954 -1.059,-0.576 -2.442,-1.149 -2.952,-1.368 -1.42,-0.618 -2.785,-1.459 -4.085,-2.481 -5.207,-4.2 -9.063,-10.847 -12.218,-17.641 -3.148,-6.876 -5.695,-14.166 -8.05,-21.53 -4.707,-14.75 -8.606,-29.895 -13.698,-44.707 -2.557,-7.395 -5.409,-14.733 -9.136,-21.653 -1.896,-3.437 -3.983,-6.785 -6.513,-9.795 -2.497,-3.021 -5.474,-5.684 -8.896,-7.558 6.67,4.191 10.915,11.053 14.224,17.955 3.28,7.005 5.679,14.391 7.79,21.846 0.517,1.839 0.974,3.697 1.461,5.547 3.454,13.157 6.241,26.52 9.667,39.834 1.963,7.595 4.129,15.187 7.049,22.662 0.842,2.117 1.753,4.226 2.755,6.312 0.763,1.587 1.574,3.163 2.478,4.711 2.078,3.581 4.605,7.08 7.939,10.084 1.675,1.49 3.564,2.832 5.66,3.898 1.249,0.611 1.653,0.827 2.288,1.204 l 0.885,0.608 0.855,0.719 c 1.198,1.084 2.285,2.421 3.283,3.899 0.884,1.309 1.699,2.728 2.432,4.215 3.129,6.384 5.135,13.689 6.751,21.04 3.156,14.799 4.706,30.155 5.905,45.527 1.178,15.397 1.832,30.878 2.632,46.502 0.085,1.59 0.171,3.179 0.26,4.773 -0.864,-9.839 -1.721,-19.63 -2.704,-29.381 -0.476,0.1 -0.932,0.204 -1.403,0.305 -1.841,-5.865 -3.995,-11.655 -6.674,-17.26 -1.794,-3.732 -3.831,-7.378 -6.236,-10.818 -1.184,-1.731 -2.516,-3.376 -3.903,-4.972 l -2.168,-2.274 c -0.682,-0.675 -1.333,-1.382 -1.976,-2.101 -1.9,-2.175 -3.624,-4.516 -5.216,-6.974 -0.599,-6.334 -4.423,-14.23 -11.333,-22.815 -4.786,-11.589 -8.956,-23.529 -14.018,-35.114 -3.247,-7.415 -6.84,-14.735 -11.392,-21.463 -4.528,-6.696 -10.186,-12.843 -17.291,-16.768 6.96,4.178 12.326,10.458 16.57,17.239 4.268,6.813 7.564,14.178 10.525,21.652 3.657,9.244 6.744,18.705 10.063,28.131 -39.564,-41.816 -146.651,-94.026 -303.866,-63.439 5.426,38.229 28.452,94.081 61.908,111.801 5.196,-0.244 10.397,-1.151 15.447,-2.701 -1.937,-1.05 -3.769,-2.217 -5.54,-3.422 -4.245,-2.988 -8.06,-6.377 -11.664,-9.929 -7.184,-7.128 -13.497,-14.973 -19.05,-23.299 -5.581,-8.3 -10.424,-17.104 -14.178,-26.368 -1.888,-4.623 -3.417,-9.401 -4.511,-14.27 -1.084,-4.863 -1.602,-9.891 -1.191,-14.818 0.093,4.949 1.208,9.767 2.658,14.425 1.467,4.665 3.434,9.149 5.576,13.531 4.34,8.743 9.663,16.972 15.5,24.759 5.898,7.738 12.337,15.075 19.43,21.582 3.554,3.237 7.293,6.247 11.217,8.803 3.625,2.378 7.539,4.442 11.308,5.261 9.185,-4.35 17.621,-10.521 25.031,-17.756 9.041,-8.767 16.664,-19.031 23.355,-29.84 -5.924,11.243 -12.843,22.093 -21.441,31.679 -6.591,7.39 -14.238,14.024 -22.907,19.185 4.368,7.775 9.493,15.062 15.479,21.462 6.332,6.728 13.759,12.327 22.015,16.263 8.232,3.976 17.227,6.374 26.454,7.252 9.124,0.874 18.417,0.4 27.647,-0.798 4.243,-2.889 8.294,-6.092 12.115,-9.561 10.239,-9.137 18.761,-20.171 26.035,-31.944 -6.506,12.207 -14.355,23.872 -24.196,33.857 -3.11,3.211 -6.435,6.229 -9.919,9.067 7.425,6.097 15.407,11.485 23.931,15.743 8.854,4.406 18.404,7.342 28.222,8.278 9.816,0.915 19.853,-0.438 29.308,-3.769 4.721,-1.682 9.331,-3.768 13.766,-6.226 4.391,-2.529 8.674,-5.302 12.779,-8.358 -3.762,3.456 -7.684,6.79 -11.933,9.717 -4.269,2.887 -8.769,5.493 -13.546,7.568 -4.764,2.09 -9.769,3.728 -14.93,4.753 -5.162,1.006 -10.458,1.421 -15.746,1.244 -10.601,-0.3 -21.005,-3.184 -30.627,-7.431 -9.16,-4.017 -17.534,-9.499 -25.375,-15.532 -1.636,0.25 -3.278,0.475 -4.927,0.667 -4.897,3.211 -10.057,6.048 -15.479,8.384 -2.182,0.944 -4.415,1.78 -6.669,2.562 34.533,42.866 90.894,37.716 121.84,16.651 0.723,3.129 1.397,6.279 2,9.444 1.654,8.753 2.898,17.614 3.987,26.503 1.086,8.893 1.983,17.827 2.882,26.788 0.931,8.974 1.728,17.926 3.218,27.087 0.397,2.305 0.839,4.613 1.558,7.074 0.399,1.255 0.757,2.486 1.668,4.056 0.315,0.455 0.463,0.767 0.953,1.312 0.439,0.5 1.012,0.983 1.657,1.354 1.309,0.773 2.769,0.981 3.886,0.93 2.269,-0.137 3.673,-0.838 4.973,-1.464 1.276,-0.656 2.37,-1.375 3.405,-2.111 2.056,-1.477 3.866,-3.04 5.613,-4.638 6.891,-6.426 12.822,-13.339 18.666,-20.338 7.953,-9.655 15.511,-19.518 22.878,-29.551 0.578,9.661 1.137,19.346 1.904,29.098 0.349,4.078 0.727,8.153 1.385,12.359 0.369,2.136 0.692,4.204 1.566,6.692 0.2,0.603 0.518,1.317 0.895,2.04 0.53,0.867 1.033,1.648 2.046,2.472 0.943,0.815 2.632,1.565 4.227,1.527 1.596,-0.006 2.794,-0.523 3.657,-0.993 1.712,-0.994 2.63,-2.011 3.505,-2.971 0.846,-0.969 1.536,-1.917 2.182,-2.86 1.274,-1.885 2.339,-3.757 3.342,-5.635 1.994,-3.752 3.708,-7.522 5.339,-11.309 3.197,-7.557 6.093,-15.152 8.802,-22.8 2.242,1.038 4.48,2.012 6.71,2.915 1.46,4.674 3,9.306 4.671,13.945 1.377,3.78 2.833,7.544 4.475,11.295 1.679,3.755 3.401,7.471 5.985,11.25 0.672,0.948 1.401,1.906 2.355,2.884 0.99,0.948 2.074,2.065 4.327,2.829 1.097,0.352 2.6,0.506 3.975,0.103 1.336,-0.366 2.455,-1.103 3.146,-1.777 0.73,-0.672 1.242,-1.357 1.755,-2.207 0.375,-0.695 0.694,-1.374 0.898,-1.945 0.885,-2.361 1.301,-4.378 1.726,-6.432 0.403,-2.037 0.735,-4.041 1.034,-6.035 0.803,-5.481 1.43,-10.914 2.014,-16.332 10.084,-0.369 19.217,-3.352 26.709,-9.707 6.55,-5.559 12.1,-11.177 16.75,-16.797 -0.937,-0.648 -1.824,-1.304 -2.684,-1.961 -4.014,-3.131 -7.437,-6.365 -10.779,-9.651 -3.323,-3.29 -6.491,-6.634 -9.584,-10.015 -6.518,-7.169 -12.741,-14.444 -18.815,-21.835 -0.355,5.917 -0.722,11.849 -1.146,17.827 -0.341,4.464 -0.7,8.924 -1.3,13.59 -0.315,2.35 -0.653,4.703 -1.295,7.408 -0.349,1.377 -0.671,2.762 -1.658,4.873 -0.135,0.273 -0.232,0.491 -0.405,0.801 -0.209,0.354 -0.427,0.703 -0.658,1.045 -0.459,0.687 -0.959,1.324 -1.753,2.078 -0.798,0.738 -1.793,1.523 -3.242,2.159 -1.415,0.633 -3.177,0.979 -4.77,0.908 -3.286,-0.175 -5.188,-1.419 -6.437,-2.25 -1.266,-0.903 -2.062,-1.714 -2.74,-2.447 -1.319,-1.462 -2.158,-2.71 -2.942,-3.918 -1.514,-2.394 -2.638,-4.6 -3.697,-6.795 -2.083,-4.37 -3.792,-8.631 -5.419,-12.899 -3.526,-9.466 -6.632,-18.882 -9.515,-28.341 -0.38,1.567 -0.762,3.136 -1.163,4.714 -0.997,3.888 -2.068,7.78 -3.29,11.712 -1.246,3.949 -2.554,7.871 -4.5,12.125 -0.507,1.078 -1.037,2.162 -1.722,3.347 -0.699,1.185 -1.465,2.434 -2.785,3.948 -0.323,0.37 -0.767,0.809 -1.171,1.196 -0.557,0.476 -0.948,0.842 -1.721,1.345 -0.372,0.238 -0.665,0.436 -1.127,0.672 -0.462,0.234 -0.939,0.446 -1.421,0.633 -1.119,0.389 -2.328,0.675 -3.746,0.683 -2.793,0.058 -5.357,-1.129 -6.77,-2.219 -0.395,-0.286 -0.643,-0.514 -0.96,-0.79 -0.293,-0.266 -0.613,-0.565 -0.797,-0.782 -0.431,-0.487 -0.837,-0.933 -1.237,-1.538 -1.605,-2.44 -1.875,-3.695 -2.342,-5.019 -0.21,-0.653 -0.382,-1.267 -0.52,-1.835 -0.163,-0.597 -0.286,-1.153 -0.408,-1.702 -0.481,-2.208 -0.827,-4.275 -1.135,-6.313 -0.217,-1.506 -0.403,-2.99 -0.591,-4.474 0.154,0.718 0.327,1.459 0.56,2.276 0.166,0.622 0.414,1.366 0.707,2.137 0.11,0.336 0.367,0.873 0.574,1.314 l 0.339,0.687 0.569,0.923 c 0.198,0.302 0.405,0.602 0.617,0.89 l 0.622,0.736 c 0.363,0.44 1.004,1.04 1.615,1.545 1.367,1.083 3.561,2.327 6.44,2.491 2.904,0.152 5.204,-0.866 6.639,-1.754 1.534,-0.959 2.298,-1.775 3.089,-2.589 1.372,-1.536 2.153,-2.799 2.865,-3.996 0.687,-1.18 1.234,-2.283 1.744,-3.361 1.967,-4.274 3.277,-8.204 4.531,-12.161 1.224,-3.943 2.298,-7.843 3.298,-11.74 0.409,-1.595 0.795,-3.18 1.178,-4.768 0.886,2.904 1.787,5.805 2.72,8.7 2.171,6.736 4.483,13.464 7.015,20.218 1.655,4.318 3.399,8.626 5.556,13.063 1.106,2.231 2.264,4.468 3.936,6.961 0.884,1.262 1.782,2.567 3.539,4.213 0.936,0.813 2.01,1.78 4.181,2.685 1.082,0.429 2.459,0.808 4.118,0.822 1.644,0.025 3.406,-0.398 4.773,-1.065 1.394,-0.665 2.4,-1.489 3.122,-2.205 0.76,-0.747 1.235,-1.388 1.713,-2.124 0.222,-0.346 0.484,-0.768 0.638,-1.068 l 0.384,-0.81 0.364,-0.821 0.234,-0.656 c 0.642,-1.816 0.895,-3.139 1.178,-4.508 0.493,-2.642 0.766,-5.027 1,-7.387 0.442,-4.693 0.692,-9.222 0.903,-13.729 0.779,-17.978 1.102,-35.629 2.031,-53.271 0.914,-17.616 2.257,-35.173 4.897,-52.43 1.338,-8.618 3.014,-17.158 5.323,-25.438 0.113,-0.397 0.233,-0.792 0.349,-1.19 2.28,-7.826 5.102,-15.5 9.219,-22.11 1.055,-1.757 2.26,-3.362 3.504,-4.914 1.109,-1.284 3.118,-3.411 4.467,-5.43 2.831,-4.096 4.818,-8.414 6.48,-12.743 3.28,-8.679 5.356,-17.471 7.216,-26.24 3.662,-17.541 6.18,-35.112 10.095,-52.376 1.976,-8.616 4.255,-17.18 7.598,-25.346 1.682,-4.071 3.638,-8.045 6.126,-11.687 2.481,-3.625 5.514,-6.965 9.314,-9.303 m -428.082,227.57 c -4.189,1.899 -8.612,3.375 -13.155,4.421 15.701,31.019 37.154,47.624 59.693,52.189 10.275,0.231 20.711,-1.563 30.56,-5.105 2.21,-0.79 4.383,-1.694 6.532,-2.649 -4.132,0.117 -8.281,0.023 -12.431,-0.355 -9.995,-0.891 -20.021,-3.352 -29.176,-7.827 -9.159,-4.457 -17.353,-10.765 -24.187,-18.157 -6.522,-6.981 -11.727,-14.966 -16.131,-23.242 -0.051,-0.011 -0.103,-0.021 -0.156,-0.037 -0.519,0.249 -1.023,0.522 -1.549,0.762"
             style="fill:#000000;fill-opacity:1;fill-rule:nonzero;stroke:none"
             id="path314" />
        </g>
      </g>
    </g>
  </g>
</svg>
